<?xml version="1.0" encoding="utf-8"?>
<!-- Generator: Adobe Illustrator 23.0.3, SVG Export Plug-In . SVG Version: 6.00 Build 0)  -->
<svg version="1.1" id="Layer_1" xmlns="http://www.w3.org/2000/svg" xmlns:xlink="http://www.w3.org/1999/xlink" x="0px" y="0px"
	 viewBox="0 0 649.6 189.9" style="enable-background:new 0 0 649.6 189.9;" xml:space="preserve">
<style type="text/css">
	.st0{fill:#B3B3B3;stroke:#000000;stroke-miterlimit:10;}
	.st1{font-family:'Helvetica';}
	.st2{font-size:7.5695px;}
	.st3{font-size:12px;}
	.st4{fill:#ED1C24;}
	.st5{fill-opacity:0.34;stroke:#000000;stroke-width:0.75;stroke-miterlimit:10;}
	.st6{fill:#0000FF;}
</style>
<polygon class="st0" points="376.5,139.7 242,139.7 273.8,61.5 408.3,61.5 "/>
<polygon class="st0" points="174.5,139.7 40,139.7 71.8,61.5 206.3,61.5 "/>
<g>
	<circle cx="40" cy="139.7" r="1.9"/>
	<circle cx="67" cy="139.7" r="1.9"/>
	<circle cx="93.9" cy="139.7" r="1.9"/>
	<circle cx="120.8" cy="139.7" r="1.9"/>
	<circle cx="147.8" cy="139.7" r="1.9"/>
	<circle cx="174.7" cy="139.7" r="1.9"/>
</g>
<g>
	<circle cx="46.4" cy="123.8" r="1.9"/>
	<circle cx="73.4" cy="123.8" r="1.9"/>
	<circle cx="100.3" cy="123.8" r="1.9"/>
	<circle cx="127.2" cy="123.8" r="1.9"/>
	<circle cx="154.1" cy="123.8" r="1.9"/>
	<circle cx="181.1" cy="123.8" r="1.9"/>
</g>
<g>
	<circle cx="52.9" cy="108" r="1.9"/>
	<circle cx="79.8" cy="108" r="1.9"/>
	<circle cx="106.8" cy="108" r="1.9"/>
	<circle cx="133.7" cy="108" r="1.9"/>
	<circle cx="160.6" cy="108" r="1.9"/>
	<circle cx="187.6" cy="108" r="1.9"/>
</g>
<g>
	<circle cx="59.6" cy="92.3" r="1.9"/>
	<circle cx="86.5" cy="92.3" r="1.9"/>
	<circle cx="113.4" cy="92.3" r="1.9"/>
	<circle cx="140.4" cy="92.3" r="1.9"/>
	<circle cx="167.3" cy="92.3" r="1.9"/>
	<circle cx="194.2" cy="92.3" r="1.9"/>
</g>
<g>
	<circle cx="66" cy="76.5" r="1.9"/>
	<circle cx="92.9" cy="76.5" r="1.9"/>
	<circle cx="119.9" cy="76.5" r="1.9"/>
	<circle cx="146.8" cy="76.5" r="1.9"/>
	<circle cx="173.7" cy="76.5" r="1.9"/>
	<circle cx="200.7" cy="76.5" r="1.9"/>
</g>
<g>
	<circle cx="71.8" cy="61.5" r="1.9"/>
	<circle cx="98.8" cy="61.5" r="1.9"/>
	<circle cx="125.7" cy="61.5" r="1.9"/>
	<circle cx="152.6" cy="61.5" r="1.9"/>
	<circle cx="179.6" cy="61.5" r="1.9"/>
	<circle cx="206.5" cy="61.5" r="1.9"/>
</g>
<text transform="matrix(1 0 0 1 173.4742 153.7005)" class="st1 st2">$\omega_2$</text>
<text transform="matrix(0.9816 0 0 1 60.894 54.4912)" class="st1 st2">$\omega_1$</text>
<text transform="matrix(1 0 0 1 61.8361 158.2525)" class="st1 st2">$\frac{\omega_2}{N}$</text>
<text transform="matrix(1 0 0 1 14.8673 125.6873)" class="st1 st2">$\frac{\omega_1}{N}$</text>
<g>
	<circle cx="242.5" cy="139.6" r="1.9"/>
	<circle cx="269.4" cy="139.6" r="1.9"/>
	<circle cx="296.3" cy="139.6" r="1.9"/>
	<circle cx="323.3" cy="139.6" r="1.9"/>
	<circle cx="350.2" cy="139.6" r="1.9"/>
	<circle cx="377.1" cy="139.6" r="1.9"/>
</g>
<g>
	<circle cx="248.9" cy="123.7" r="1.9"/>
	<circle cx="275.8" cy="123.7" r="1.9"/>
	<circle cx="302.7" cy="123.7" r="1.9"/>
	<circle cx="329.7" cy="123.7" r="1.9"/>
	<circle cx="356.6" cy="123.7" r="1.9"/>
	<circle cx="383.5" cy="123.7" r="1.9"/>
</g>
<g>
	<ellipse transform="matrix(0.1602 -0.9871 0.9871 0.1602 107.9282 342.7139)" cx="255.4" cy="107.9" rx="1.9" ry="1.9"/>
	<circle cx="282.3" cy="107.9" r="1.9"/>
	<circle cx="309.2" cy="107.9" r="1.9"/>
	<circle cx="336.2" cy="107.9" r="1.9"/>
	<circle cx="363.1" cy="107.9" r="1.9"/>
	<circle cx="390" cy="107.9" r="1.9"/>
</g>
<g>
	<circle cx="262" cy="92.2" r="1.9"/>
	<circle cx="289" cy="92.2" r="1.9"/>
	<circle cx="315.9" cy="92.2" r="1.9"/>
	<circle cx="342.8" cy="92.2" r="1.9"/>
	<circle cx="369.8" cy="92.2" r="1.9"/>
	<circle cx="396.7" cy="92.2" r="1.9"/>
</g>
<g>
	<circle cx="268.5" cy="76.4" r="1.9"/>
	<circle cx="295.4" cy="76.4" r="1.9"/>
	<circle cx="322.3" cy="76.4" r="1.9"/>
	<circle cx="349.3" cy="76.4" r="1.9"/>
	<circle cx="376.2" cy="76.4" r="1.9"/>
	<circle cx="403.1" cy="76.4" r="1.9"/>
</g>
<g>
	<circle cx="274.3" cy="61.5" r="1.9"/>
	<circle cx="301.2" cy="61.5" r="1.9"/>
	<circle cx="328.1" cy="61.5" r="1.9"/>
	<circle cx="355.1" cy="61.5" r="1.9"/>
	<circle cx="382" cy="61.5" r="1.9"/>
	<circle cx="408.9" cy="61.5" r="1.9"/>
</g>
<text transform="matrix(1 0 0 1 375.9226 153.6093)" class="st1 st2">$\omega_2$</text>
<text transform="matrix(0.9816 0 0 1 263.3423 54.3999)" class="st1 st2">$\omega_1$</text>
<text transform="matrix(1 0 0 1 264.2847 158.2522)" class="st1 st2">$\frac{\omega_2}{N}$</text>
<text transform="matrix(1 0 0 1 213.3107 125.5957)" class="st1 st2">$\frac{\omega_1}{N}$</text>
<polygon class="st0" points="587.8,139.7 453.3,139.7 485.1,61.5 619.5,61.5 "/>
<g>
	<circle cx="453.3" cy="139.7" r="1.9"/>
	<circle cx="480.2" cy="139.7" r="1.9"/>
	<circle cx="507.1" cy="139.7" r="1.9"/>
	<circle cx="534.1" cy="139.7" r="1.9"/>
	<circle cx="561" cy="139.7" r="1.9"/>
	<circle cx="587.9" cy="139.7" r="1.9"/>
</g>
<g>
	<circle cx="459.7" cy="123.8" r="1.9"/>
	<circle cx="486.6" cy="123.8" r="1.9"/>
	<circle cx="513.5" cy="123.8" r="1.9"/>
	<circle cx="540.5" cy="123.8" r="1.9"/>
	<circle cx="567.4" cy="123.8" r="1.9"/>
	<circle cx="594.3" cy="123.8" r="1.9"/>
</g>
<g>
	<circle cx="466.2" cy="108" r="1.9"/>
	<circle cx="493.1" cy="108" r="1.9"/>
	<circle cx="520" cy="108" r="1.9"/>
	<circle cx="547" cy="108" r="1.9"/>
	<circle cx="573.9" cy="108" r="1.9"/>
	<circle cx="600.8" cy="108" r="1.9"/>
</g>
<g>
	<circle cx="472.8" cy="92.3" r="1.9"/>
	<circle cx="499.8" cy="92.3" r="1.9"/>
	<circle cx="526.7" cy="92.3" r="1.9"/>
	<circle cx="553.6" cy="92.3" r="1.9"/>
	<circle cx="580.5" cy="92.3" r="1.9"/>
	<circle cx="607.5" cy="92.3" r="1.9"/>
</g>
<g>
	<circle cx="479.3" cy="76.5" r="1.9"/>
	<circle cx="506.2" cy="76.5" r="1.9"/>
	<circle cx="533.1" cy="76.5" r="1.9"/>
	<circle cx="560.1" cy="76.5" r="1.9"/>
	<circle cx="587" cy="76.5" r="1.9"/>
	<circle cx="613.9" cy="76.5" r="1.9"/>
</g>
<g>
	<circle cx="485.1" cy="61.5" r="1.9"/>
	<circle cx="512" cy="61.5" r="1.9"/>
	<circle cx="538.9" cy="61.5" r="1.9"/>
	<circle cx="565.9" cy="61.5" r="1.9"/>
	<circle cx="592.8" cy="61.5" r="1.9"/>
	<circle cx="619.7" cy="61.5" r="1.9"/>
</g>
<text transform="matrix(1 0 0 1 586.7262 153.7003)" class="st1 st2">$\omega_2$</text>
<text transform="matrix(0.9816 0 0 1 474.146 54.4912)" class="st1 st2">$\omega_1$</text>
<text transform="matrix(1 0 0 1 475.0882 158.2523)" class="st1 st2">$\frac{\omega_2}{N}$</text>
<text transform="matrix(1 0 0 1 428.453 121.8147)" class="st1 st2">$\frac{\omega_1}{N}$</text>
<text transform="matrix(1 0 0 1 89.8963 32.7099)" class="st1 st3">$\Gamma_0(N), (E,C)$ </text>
<text transform="matrix(1 0 0 1 287.7955 32.7104)" class="st1 st3">$\Gamma_1(N), (E,Q)$</text>
<text transform="matrix(1 0 0 1 494.7054 32.7099)" class="st1 st3">$\Gamma(N), (E,Q,P)$ </text>
<circle class="st4" cx="79.9" cy="108" r="2.2"/>
<circle class="st4" cx="120" cy="76.5" r="2.2"/>
<circle class="st4" cx="126.9" cy="123.8" r="2.2"/>
<circle class="st4" cx="167.3" cy="92.3" r="2.2"/>
<circle class="st4" cx="40" cy="139.7" r="2.2"/>
<circle class="st4" cx="206.5" cy="61.5" r="2.2"/>
<circle class="st4" cx="282.3" cy="107.9" r="2.2"/>
<polygon class="st5" points="453.3,139.7 493.2,108 538.9,61.5 499.7,92.3 "/>
<circle class="st4" cx="499.7" cy="92.3" r="2.2"/>
<circle class="st6" cx="493.4" cy="108.3" r="2.2"/>
</svg>
