<?xml version="1.0" encoding="utf-8"?>
<!-- Generator: Adobe Illustrator 23.0.3, SVG Export Plug-In . SVG Version: 6.00 Build 0)  -->
<svg version="1.1" id="Layer_1" xmlns="http://www.w3.org/2000/svg" xmlns:xlink="http://www.w3.org/1999/xlink" x="0px" y="0px"
	 viewBox="0 0 649.59 174.22" style="enable-background:new 0 0 649.59 174.22;" xml:space="preserve">
<style type="text/css">
	.st0{fill:#B3B3B3;stroke:#000000;stroke-miterlimit:10;}
	.st1{font-family:'Helvetica';}
	.st2{font-size:7.5695px;}
	.st3{font-size:12px;}
	.st4{fill:#ED1C24;}
	.st5{fill:#0000FF;}
	.st6{fill:#666666;stroke:#000000;stroke-width:0.75;stroke-miterlimit:10;}
</style>
<polygon class="st0" points="174.49,123.98 40.03,123.98 71.82,45.86 206.28,45.86 "/>
<g>
	<circle cx="40.03" cy="123.98" r="1.89"/>
	<circle cx="66.96" cy="123.98" r="1.89"/>
	<circle cx="93.89" cy="123.98" r="1.89"/>
	<circle cx="120.82" cy="123.98" r="1.89"/>
	<circle cx="147.76" cy="123.98" r="1.89"/>
	<circle cx="174.69" cy="123.98" r="1.89"/>
</g>
<g>
	<circle cx="46.43" cy="108.15" r="1.89"/>
	<circle cx="73.36" cy="108.15" r="1.89"/>
	<circle cx="100.29" cy="108.15" r="1.89"/>
	<circle cx="127.22" cy="108.15" r="1.89"/>
	<circle cx="154.15" cy="108.15" r="1.89"/>
	<circle cx="181.08" cy="108.15" r="1.89"/>
</g>
<g>
	<circle cx="52.92" cy="92.33" r="1.89"/>
	<circle cx="79.85" cy="92.33" r="1.89"/>
	<circle cx="106.78" cy="92.33" r="1.89"/>
	<circle cx="133.71" cy="92.33" r="1.89"/>
	<circle cx="160.65" cy="92.33" r="1.89"/>
	<circle cx="187.58" cy="92.33" r="1.89"/>
</g>
<g>
	<circle cx="59.57" cy="76.59" r="1.89"/>
	<circle cx="86.5" cy="76.59" r="1.89"/>
	<circle cx="113.44" cy="76.59" r="1.89"/>
	<circle cx="140.37" cy="76.59" r="1.89"/>
	<circle cx="167.3" cy="76.59" r="1.89"/>
	<circle cx="194.23" cy="76.59" r="1.89"/>
</g>
<g>
	<circle cx="66.01" cy="60.85" r="1.89"/>
	<circle cx="92.95" cy="60.85" r="1.89"/>
	<circle cx="119.88" cy="60.85" r="1.89"/>
	<circle cx="146.81" cy="60.85" r="1.89"/>
	<circle cx="173.74" cy="60.85" r="1.89"/>
	<circle cx="200.67" cy="60.85" r="1.89"/>
</g>
<g>
	<circle cx="71.82" cy="45.86" r="1.89"/>
	<circle cx="98.75" cy="45.86" r="1.89"/>
	<circle cx="125.68" cy="45.86" r="1.89"/>
	<circle cx="152.61" cy="45.86" r="1.89"/>
	<circle cx="179.55" cy="45.86" r="1.89"/>
	<circle cx="206.48" cy="45.86" r="1.89"/>
</g>
<text transform="matrix(1 0 0 1 172.7967 133.7886)" class="st1 st2">$\omega_2$</text>
<text transform="matrix(0.9816 0 0 1 60.5975 40.4302)" class="st1 st2">$\omega_1$</text>
<text transform="matrix(1 0 0 1 61.8361 142.5628)" class="st1 st2">$\frac{\omega_2}{N}$</text>
<text transform="matrix(1 0 0 1 14.8673 109.9976)" class="st1 st2">$\frac{\omega_1}{N}$</text>
<polygon class="st0" points="376.94,123.89 242.48,123.89 274.27,45.77 408.73,45.77 "/>
<g>
	<circle cx="242.48" cy="123.89" r="1.89"/>
	<circle cx="269.41" cy="123.89" r="1.89"/>
	<circle cx="296.34" cy="123.89" r="1.89"/>
	<circle cx="323.27" cy="123.89" r="1.89"/>
	<circle cx="350.2" cy="123.89" r="1.89"/>
	<circle cx="377.14" cy="123.89" r="1.89"/>
</g>
<g>
	<circle cx="248.87" cy="108.06" r="1.89"/>
	<circle cx="275.81" cy="108.06" r="1.89"/>
	<circle cx="302.74" cy="108.06" r="1.89"/>
	<circle cx="329.67" cy="108.06" r="1.89"/>
	<circle cx="356.6" cy="108.06" r="1.89"/>
	<circle cx="383.53" cy="108.06" r="1.89"/>
</g>
<g>
	<circle cx="255.37" cy="92.24" r="1.89"/>
	<circle cx="282.3" cy="92.24" r="1.89"/>
	<circle cx="309.23" cy="92.24" r="1.89"/>
	<circle cx="336.16" cy="92.24" r="1.89"/>
	<circle cx="363.09" cy="92.24" r="1.89"/>
	<circle cx="390.03" cy="92.24" r="1.89"/>
</g>
<g>
	<circle cx="262.02" cy="76.5" r="1.89"/>
	<circle cx="288.95" cy="76.5" r="1.89"/>
	<circle cx="315.88" cy="76.5" r="1.89"/>
	<circle cx="342.82" cy="76.5" r="1.89"/>
	<circle cx="369.75" cy="76.5" r="1.89"/>
	<circle cx="396.68" cy="76.5" r="1.89"/>
</g>
<g>
	<circle cx="268.46" cy="60.76" r="1.89"/>
	<circle cx="295.39" cy="60.76" r="1.89"/>
	<circle cx="322.32" cy="60.76" r="1.89"/>
	<circle cx="349.26" cy="60.76" r="1.89"/>
	<circle cx="376.19" cy="60.76" r="1.89"/>
	<circle cx="403.12" cy="60.76" r="1.89"/>
</g>
<g>
	<circle cx="274.27" cy="45.77" r="1.89"/>
	<circle cx="301.2" cy="45.77" r="1.89"/>
	<circle cx="328.13" cy="45.77" r="1.89"/>
	<circle cx="355.06" cy="45.77" r="1.89"/>
	<circle cx="381.99" cy="45.77" r="1.89"/>
	<circle cx="408.92" cy="45.77" r="1.89"/>
</g>
<text transform="matrix(1 0 0 1 375.2451 133.6974)" class="st1 st2">$\omega_2$</text>
<text transform="matrix(0.9816 0 0 1 263.0459 40.339)" class="st1 st2">$\omega_1$</text>
<text transform="matrix(1 0 0 1 264.2847 142.5625)" class="st1 st2">$\frac{\omega_2}{N}$</text>
<text transform="matrix(1 0 0 1 213.3107 109.906)" class="st1 st2">$\frac{\omega_1}{N}$</text>
<polygon class="st0" points="587.75,123.98 453.28,123.98 485.07,45.86 619.54,45.86 "/>
<g>
	<circle cx="453.28" cy="123.98" r="1.89"/>
	<circle cx="480.21" cy="123.98" r="1.89"/>
	<circle cx="507.14" cy="123.98" r="1.89"/>
	<circle cx="534.08" cy="123.98" r="1.89"/>
	<circle cx="561.01" cy="123.98" r="1.89"/>
	<circle cx="587.94" cy="123.98" r="1.89"/>
</g>
<g>
	<circle cx="459.68" cy="108.15" r="1.89"/>
	<circle cx="486.61" cy="108.15" r="1.89"/>
	<circle cx="513.54" cy="108.15" r="1.89"/>
	<circle cx="540.47" cy="108.15" r="1.89"/>
	<circle cx="567.4" cy="108.15" r="1.89"/>
	<circle cx="594.34" cy="108.15" r="1.89"/>
</g>
<g>
	<circle cx="466.17" cy="92.33" r="1.89"/>
	<circle cx="493.1" cy="92.33" r="1.89"/>
	<circle cx="520.04" cy="92.33" r="1.89"/>
	<circle cx="546.97" cy="92.33" r="1.89"/>
	<circle cx="573.9" cy="92.33" r="1.89"/>
	<circle cx="600.83" cy="92.33" r="1.89"/>
</g>
<g>
	<circle cx="472.83" cy="76.59" r="1.89"/>
	<circle cx="499.76" cy="76.59" r="1.89"/>
	<circle cx="526.69" cy="76.59" r="1.89"/>
	<circle cx="553.62" cy="76.59" r="1.89"/>
	<circle cx="580.55" cy="76.59" r="1.89"/>
	<circle cx="607.48" cy="76.59" r="1.89"/>
</g>
<g>
	<circle cx="479.27" cy="60.85" r="1.89"/>
	<circle cx="506.2" cy="60.85" r="1.89"/>
	<circle cx="533.13" cy="60.85" r="1.89"/>
	<circle cx="560.06" cy="60.85" r="1.89"/>
	<circle cx="586.99" cy="60.85" r="1.89"/>
	<circle cx="613.92" cy="60.85" r="1.89"/>
</g>
<g>
	<circle cx="485.07" cy="45.86" r="1.89"/>
	<circle cx="512" cy="45.86" r="1.89"/>
	<circle cx="538.93" cy="45.86" r="1.89"/>
	<circle cx="565.87" cy="45.86" r="1.89"/>
	<circle cx="592.8" cy="45.86" r="1.89"/>
	<circle cx="619.73" cy="45.86" r="1.89"/>
</g>
<text transform="matrix(1 0 0 1 586.0487 133.7884)" class="st1 st2">$\omega_2$</text>
<text transform="matrix(0.9816 0 0 1 473.8495 40.43)" class="st1 st2">$\omega_1$</text>
<text transform="matrix(1 0 0 1 475.0882 142.5626)" class="st1 st2">$\frac{\omega_2}{N}$</text>
<text transform="matrix(1 0 0 1 428.453 106.1249)" class="st1 st2">$\frac{\omega_1}{N}$</text>
<text transform="matrix(1 0 0 1 89.8963 17.0202)"><tspan x="0" y="0" class="st1 st3">$\Gamma_0(N), (E, </tspan><tspan x="108.02" y="0" class="st4 st1 st3">C</tspan><tspan x="116.69" y="0" class="st1 st3">)$</tspan></text>
<text transform="matrix(1 0 0 1 287.7955 17.0207)"><tspan x="0" y="0" class="st1 st3">$\Gamma_1(N), (E,</tspan><tspan x="104.69" y="0" class="st4 st1 st3">Q</tspan><tspan x="114.02" y="0" class="st1 st3">)$</tspan></text>
<text transform="matrix(1 0 0 1 494.7054 17.0201)"><tspan x="0" y="0" class="st1 st3">$\Gamma(N), (E, </tspan><tspan x="94.68" y="0" class="st4 st1 st3">P</tspan><tspan x="102.68" y="0" class="st1 st3">, </tspan><tspan x="109.35" y="0" class="st5 st1 st3">Q</tspan><tspan x="118.68" y="0" class="st1 st3">)$</tspan></text>
<circle class="st4" cx="79.88" cy="92.33" r="2.16"/>
<circle class="st4" cx="120.04" cy="60.85" r="2.16"/>
<circle class="st4" cx="126.9" cy="108.15" r="2.16"/>
<circle class="st4" cx="167.28" cy="76.59" r="2.16"/>
<circle class="st4" cx="40.03" cy="123.98" r="2.16"/>
<circle class="st4" cx="206.48" cy="45.86" r="2.16"/>
<circle class="st4" cx="282.27" cy="92.24" r="2.16"/>
<polygon class="st6" points="453.28,123.98 493.17,92.33 538.94,45.86 499.71,76.59 "/>
<circle class="st4" cx="499.71" cy="76.59" r="2.16"/>
<circle class="st5" cx="493.39" cy="92.6" r="2.16"/>
</svg>
