<?xml version="1.0" encoding="utf-8"?>
<!-- Generator: Adobe Illustrator 23.0.3, SVG Export Plug-In . SVG Version: 6.00 Build 0)  -->
<svg version="1.1"
	 id="svg8" xmlns:cc="http://creativecommons.org/ns#" xmlns:dc="http://purl.org/dc/elements/1.1/" xmlns:inkscape="http://www.inkscape.org/namespaces/inkscape" xmlns:osb="http://www.openswatchbook.org/uri/2009/osb" xmlns:rdf="http://www.w3.org/1999/02/22-rdf-syntax-ns#" xmlns:sodipodi="http://sodipodi.sourceforge.net/DTD/sodipodi-0.dtd" xmlns:svg="http://www.w3.org/2000/svg"
	 xmlns="http://www.w3.org/2000/svg" xmlns:xlink="http://www.w3.org/1999/xlink" x="0px" y="0px" viewBox="0 0 1010.1 354.1"
	 style="enable-background:new 0 0 1010.1 354.1;" xml:space="preserve">
<style type="text/css">
	.st0{fill-opacity:0.3401;stroke:#000000;stroke-width:0.4564;stroke-linecap:round;stroke-miterlimit:7.7;stroke-opacity:0.8704;}
	.st1{font-family:'Helvetica';}
	.st2{font-size:12px;}
	.st3{fill:none;stroke:#990000;stroke-width:2;stroke-dasharray:2.295,2.295;}
	.st4{fill:none;stroke:#0056BB;stroke-width:2;stroke-dasharray:2.295,2.295;}
	.st5{font-size:29.9999px;}
	.st6{font-family:'MyriadPro-Regular';}
	.st7{stroke:#000000;stroke-width:0.4564;stroke-linecap:round;stroke-miterlimit:7.7;}
</style>
<sodipodi:namedview  bordercolor="#666666" borderopacity="1.0" id="base" inkscape:current-layer="layer1" inkscape:cx="588.86102" inkscape:cy="122.78367" inkscape:document-rotation="0" inkscape:document-units="mm" inkscape:pageopacity="0.0" inkscape:pageshadow="2" inkscape:window-height="1136" inkscape:window-maximized="0" inkscape:window-width="945" inkscape:window-x="10" inkscape:window-y="32" inkscape:zoom="0.7697159" pagecolor="#ffffff" showgrid="false">
	</sodipodi:namedview>
<polygon id="rect833" class="st0" points="354.3,142.3 606.7,58.9 589.6,245.5 337.2,328.9 "/>
<text transform="matrix(1 0 0 1 325.9893 126.9062)" class="st1 st2">$\omega_1$</text>
<text transform="matrix(1 0 0 1 609.4355 248.6953)" class="st1 st2">$\omega_2$</text>
<path id="path2839" inkscape:connector-curvature="0" class="st3" d="M631.6,37.2l-17.1,186.6"/>
<path id="path2852" inkscape:connector-curvature="0" class="st4" d="M363.3,302.6l251.1-78.9l0,0l0,0l0,0"/>
<path id="path2854" inkscape:connector-curvature="0" class="st4" d="M380.5,116l251.1-78.9l0,0l0,0l0,0"/>
<text transform="matrix(1 0 0 1 438.5566 194.8896)" class="st1 st5">$P$</text>
<path id="path3130" inkscape:connector-curvature="0" class="st3" d="M380.5,116l-17.1,186.6"/>
<text transform="matrix(1 0 0 1 468.2842 53.8955)" class="st6 st2">$\partial P + t$</text>
<circle class="st7" cx="363.3" cy="302.7" r="4.6"/>
<text transform="matrix(1 0 0 1 379.3706 277.9014)" class="st6 st2">$t$</text>
</svg>
