<?xml version="1.0" encoding="utf-8"?>
<!-- Generator: Adobe Illustrator 23.0.3, SVG Export Plug-In . SVG Version: 6.00 Build 0)  -->
<svg version="1.1" id="Layer_1" xmlns="http://www.w3.org/2000/svg" xmlns:xlink="http://www.w3.org/1999/xlink" x="0px" y="0px"
	 viewBox="0 0 560 174.22" style="enable-background:new 0 0 560 174.22;" xml:space="preserve">
<style type="text/css">
	.st0{fill:#999999;stroke:#000000;stroke-miterlimit:10;}
	.st1{fill:none;stroke:#000000;stroke-miterlimit:10;}
	.st2{font-family:'Helvetica';}
	.st3{font-size:12px;}
</style>
<polygon class="st0" points="333.93,46.99 238.49,72.42 165.05,147.92 260.49,122.49 "/>
<polygon class="st1" points="377.75,147.92 164.58,147.92 214.98,24.08 428.15,24.08 "/>
<g>
	<circle cx="164.58" cy="147.92" r="3"/>
	<circle cx="207.28" cy="147.92" r="3"/>
	<circle cx="249.97" cy="147.92" r="3"/>
	<circle cx="292.67" cy="147.92" r="3"/>
	<circle cx="335.36" cy="147.92" r="3"/>
	<circle cx="378.06" cy="147.92" r="3"/>
</g>
<g>
	<circle cx="174.72" cy="122.84" r="3"/>
	<circle cx="217.42" cy="122.84" r="3"/>
	<circle cx="260.11" cy="122.84" r="3"/>
	<circle cx="302.81" cy="122.84" r="3"/>
	<circle cx="345.5" cy="122.84" r="3"/>
	<circle cx="388.2" cy="122.84" r="3"/>
</g>
<g>
	<circle cx="185.02" cy="97.75" r="3"/>
	<circle cx="227.71" cy="97.75" r="3"/>
	<circle cx="270.41" cy="97.75" r="3"/>
	<circle cx="313.1" cy="97.75" r="3"/>
	<circle cx="355.8" cy="97.75" r="3"/>
	<circle cx="398.49" cy="97.75" r="3"/>
</g>
<g>
	<circle cx="195.56" cy="72.79" r="3"/>
	<circle cx="238.26" cy="72.79" r="3"/>
	<circle cx="280.95" cy="72.79" r="3"/>
	<circle cx="323.65" cy="72.79" r="3"/>
	<circle cx="366.34" cy="72.79" r="3"/>
	<circle cx="409.04" cy="72.79" r="3"/>
</g>
<g>
	<circle cx="205.77" cy="47.84" r="3"/>
	<circle cx="248.47" cy="47.84" r="3"/>
	<circle cx="291.16" cy="47.84" r="3"/>
	<circle cx="333.86" cy="47.84" r="3"/>
	<circle cx="376.55" cy="47.84" r="3"/>
	<circle cx="419.25" cy="47.84" r="3"/>
</g>
<g>
	<circle cx="214.98" cy="24.08" r="3"/>
	<circle cx="257.67" cy="24.08" r="3"/>
	<circle cx="300.37" cy="24.08" r="3"/>
	<circle cx="343.06" cy="24.08" r="3"/>
	<circle cx="385.76" cy="24.08" r="3"/>
	<circle cx="428.45" cy="24.08" r="3"/>
</g>
<text transform="matrix(1 0 0 1 375.059 163.4776)" class="st2 st3">$\omega_2$</text>
<text transform="matrix(0.9816 0 0 1 197.1887 15.4747)" class="st2 st3">$\omega_1$</text>
<text transform="matrix(1 0 0 1 198.5627 163.4776)" class="st2 st3">$\frac{\omega_2}{N}$</text>
<text transform="matrix(1 0 0 1 149.3751 125.8334)" class="st2 st3">$\frac{\omega_1}{N}$</text>
<text transform="matrix(1 0 0 1 264.6148 135.3797)" class="st2 st3">$(c,d)$</text>
<text transform="matrix(1 0 0 1 236.4239 64.8093)" class="st2 st3">$(a,b)$</text>
</svg>
